REM DIRINDEX 1\2\5,1\2\6,1\2\7,1\2\8,1\3\9,1\3\10,1\3\11,1\4\12,1\4\13,1\4\14,1\4\15,1\4\16
REM DIRNAME cjc034,folder01,folder02,folder03,folder04,folder05,folder06,folder07,folder08,folder09,folder10,folder11,folder12,folder13,folder14,folder15
TITLE ""
FILE "1200_sec05_1535_1542.mp3" MP3
  TRACK 01 AUDIO
    TITLE "0:"
    INDEX 01 00:00:00
  TRACK 02 AUDIO
    TITLE "12:cjc034_09886"
    INDEX 01 00:00:19
  TRACK 03 AUDIO
    TITLE "0:"
    INDEX 01 00:01:30
  TRACK 04 AUDIO
    TITLE "13:cjc034_09887"
    INDEX 01 00:01:66
  TRACK 05 AUDIO
    TITLE "0:"
    INDEX 01 00:05:48
  TRACK 06 AUDIO
    TITLE "14:cjc034_09888"
    INDEX 01 00:06:04
  TRACK 07 AUDIO
    TITLE "0:"
    INDEX 01 00:07:15
  TRACK 08 AUDIO
    TITLE "15:cjc034_09889"
    INDEX 01 00:07:49
  TRACK 09 AUDIO
    TITLE "0:"
    INDEX 01 00:12:01
  TRACK 10 AUDIO
    TITLE "12:cjc034_09890"
    INDEX 01 00:13:33
  TRACK 11 AUDIO
    TITLE "0:"
    INDEX 01 00:14:33
  TRACK 12 AUDIO
    TITLE "13:cjc034_09891"
    INDEX 01 00:14:66
  TRACK 13 AUDIO
    TITLE "0:"
    INDEX 01 00:15:72
  TRACK 14 AUDIO
    TITLE "14:cjc034_09892"
    INDEX 01 00:16:30
  TRACK 15 AUDIO
    TITLE "0:"
    INDEX 01 00:17:27
  TRACK 16 AUDIO
    TITLE "15:cjc034_09893"
    INDEX 01 00:17:61
  TRACK 17 AUDIO
    TITLE "0:"
    INDEX 01 00:20:30
  TRACK 18 AUDIO
    TITLE "12:cjc034_09894"
    INDEX 01 00:21:62
  TRACK 19 AUDIO
    TITLE "0:"
    INDEX 01 00:22:60
  TRACK 20 AUDIO
    TITLE "13:cjc034_09895"
    INDEX 01 00:23:20
  TRACK 21 AUDIO
    TITLE "0:"
    INDEX 01 00:26:48
  TRACK 22 AUDIO
    TITLE "14:cjc034_09896"
    INDEX 01 00:27:04
  TRACK 23 AUDIO
    TITLE "0:"
    INDEX 01 00:28:06
  TRACK 24 AUDIO
    TITLE "15:cjc034_09897"
    INDEX 01 00:28:37
  TRACK 25 AUDIO
    TITLE "0:"
    INDEX 01 00:31:73
  TRACK 26 AUDIO
    TITLE "12:cjc034_09898"
    INDEX 01 00:33:30
  TRACK 27 AUDIO
    TITLE "0:"
    INDEX 01 00:34:45
  TRACK 28 AUDIO
    TITLE "13:cjc034_09899"
    INDEX 01 00:35:04
  TRACK 29 AUDIO
    TITLE "0:"
    INDEX 01 00:37:48
  TRACK 30 AUDIO
    TITLE "14:cjc034_09900"
    INDEX 01 00:38:08
  TRACK 31 AUDIO
    TITLE "0:"
    INDEX 01 00:39:21
  TRACK 32 AUDIO
    TITLE "15:cjc034_09901"
    INDEX 01 00:39:56
  TRACK 33 AUDIO
    TITLE "0:"
    INDEX 01 00:43:54
  TRACK 34 AUDIO
    TITLE "12:cjc034_09902"
    INDEX 01 00:45:14
  TRACK 35 AUDIO
    TITLE "0:"
    INDEX 01 00:46:33
  TRACK 36 AUDIO
    TITLE "13:cjc034_09903"
    INDEX 01 00:46:66
  TRACK 37 AUDIO
    TITLE "0:"
    INDEX 01 00:49:27
  TRACK 38 AUDIO
    TITLE "14:cjc034_09904"
    INDEX 01 00:49:59
  TRACK 39 AUDIO
    TITLE "0:"
    INDEX 01 00:51:03
  TRACK 40 AUDIO
    TITLE "15:cjc034_09905"
    INDEX 01 00:51:34
  TRACK 41 AUDIO
    TITLE "0:"
    INDEX 01 00:54:34
  TRACK 42 AUDIO
    TITLE "12:cjc034_09906"
    INDEX 01 00:55:69
  TRACK 43 AUDIO
    TITLE "0:"
    INDEX 01 00:57:03
  TRACK 44 AUDIO
    TITLE "13:cjc034_09907"
    INDEX 01 00:57:39
  TRACK 45 AUDIO
    TITLE "0:"
    INDEX 01 00:59:12
  TRACK 46 AUDIO
    TITLE "14:cjc034_09908"
    INDEX 01 00:59:43
  TRACK 47 AUDIO
    TITLE "0:"
    INDEX 01 01:00:51
  TRACK 48 AUDIO
    TITLE "15:cjc034_09909"
    INDEX 01 01:01:15
  TRACK 49 AUDIO
    TITLE "0:"
    INDEX 01 01:04:27
  TRACK 50 AUDIO
    TITLE "12:cjc034_09910"
    INDEX 01 01:05:58
  TRACK 51 AUDIO
    TITLE "0:"
    INDEX 01 01:07:00
  TRACK 52 AUDIO
    TITLE "13:cjc034_09911"
    INDEX 01 01:07:31
  TRACK 53 AUDIO
    TITLE "0:"
    INDEX 01 01:10:39
  TRACK 54 AUDIO
    TITLE "14:cjc034_09912"
    INDEX 01 01:10:71
  TRACK 55 AUDIO
    TITLE "0:"
    INDEX 01 01:12:15
  TRACK 56 AUDIO
    TITLE "15:cjc034_09913"
    INDEX 01 01:12:48
  TRACK 57 AUDIO
    TITLE "0:"
    INDEX 01 01:16:63
  TRACK 58 AUDIO
    TITLE "12:cjc034_09914"
    INDEX 01 01:18:19
  TRACK 59 AUDIO
    TITLE "0:"
    INDEX 01 01:19:36
  TRACK 60 AUDIO
    TITLE "13:cjc034_09915"
    INDEX 01 01:19:74
  TRACK 61 AUDIO
    TITLE "0:"
    INDEX 01 01:22:72
  TRACK 62 AUDIO
    TITLE "14:cjc034_09916"
    INDEX 01 01:23:30
  TRACK 63 AUDIO
    TITLE "0:"
    INDEX 01 01:24:51
  TRACK 64 AUDIO
    TITLE "15:cjc034_09917"
    INDEX 01 01:25:08
  TRACK 65 AUDIO
    TITLE "0:"
    INDEX 01 01:29:43
